<mxfile host="app.diagrams.net" modified="2023-10-30T06:18:24.051Z" agent="Mozilla/5.0 (Windows NT 10.0; Win64; x64) AppleWebKit/537.36 (KHTML, like Gecko) Chrome/118.0.0.0 Safari/537.36" etag="CwsBMTYkrTGoJg5aknSk" version="22.0.8" type="github">
  <diagram name="第 1 页" id="oGjTL8xYPD2eN9oTlQ-e">
    <mxGraphModel dx="1126" dy="819" grid="1" gridSize="10" guides="1" tooltips="1" connect="1" arrows="1" fold="1" page="1" pageScale="1" pageWidth="827" pageHeight="1169" math="0" shadow="0">
      <root>
        <mxCell id="0" />
        <mxCell id="1" parent="0" />
        <mxCell id="JNov9Xd53ws-dFWpeBxS-1" value="" style="shape=table;startSize=0;container=1;collapsible=0;childLayout=tableLayout;fontSize=16;" vertex="1" parent="1">
          <mxGeometry x="280" y="220" width="640" height="210" as="geometry" />
        </mxCell>
        <mxCell id="JNov9Xd53ws-dFWpeBxS-2" value="" style="shape=tableRow;horizontal=0;startSize=0;swimlaneHead=0;swimlaneBody=0;strokeColor=inherit;top=0;left=0;bottom=0;right=0;collapsible=0;dropTarget=0;fillColor=none;points=[[0,0.5],[1,0.5]];portConstraint=eastwest;fontSize=16;" vertex="1" parent="JNov9Xd53ws-dFWpeBxS-1">
          <mxGeometry width="640" height="53" as="geometry" />
        </mxCell>
        <mxCell id="JNov9Xd53ws-dFWpeBxS-3" value="事物名稱" style="shape=partialRectangle;html=1;whiteSpace=wrap;connectable=0;strokeColor=inherit;overflow=hidden;fillColor=none;top=0;left=0;bottom=0;right=0;pointerEvents=1;fontSize=16;" vertex="1" parent="JNov9Xd53ws-dFWpeBxS-2">
          <mxGeometry width="130" height="53" as="geometry">
            <mxRectangle width="130" height="53" as="alternateBounds" />
          </mxGeometry>
        </mxCell>
        <mxCell id="JNov9Xd53ws-dFWpeBxS-4" value="含意" style="shape=partialRectangle;html=1;whiteSpace=wrap;connectable=0;strokeColor=inherit;overflow=hidden;fillColor=none;top=0;left=0;bottom=0;right=0;pointerEvents=1;fontSize=16;" vertex="1" parent="JNov9Xd53ws-dFWpeBxS-2">
          <mxGeometry x="130" width="350" height="53" as="geometry">
            <mxRectangle width="350" height="53" as="alternateBounds" />
          </mxGeometry>
        </mxCell>
        <mxCell id="JNov9Xd53ws-dFWpeBxS-5" value="圖例" style="shape=partialRectangle;html=1;whiteSpace=wrap;connectable=0;strokeColor=inherit;overflow=hidden;fillColor=none;top=0;left=0;bottom=0;right=0;pointerEvents=1;fontSize=16;" vertex="1" parent="JNov9Xd53ws-dFWpeBxS-2">
          <mxGeometry x="480" width="160" height="53" as="geometry">
            <mxRectangle width="160" height="53" as="alternateBounds" />
          </mxGeometry>
        </mxCell>
        <mxCell id="JNov9Xd53ws-dFWpeBxS-6" value="" style="shape=tableRow;horizontal=0;startSize=0;swimlaneHead=0;swimlaneBody=0;strokeColor=inherit;top=0;left=0;bottom=0;right=0;collapsible=0;dropTarget=0;fillColor=none;points=[[0,0.5],[1,0.5]];portConstraint=eastwest;fontSize=16;" vertex="1" parent="JNov9Xd53ws-dFWpeBxS-1">
          <mxGeometry y="53" width="640" height="52" as="geometry" />
        </mxCell>
        <mxCell id="JNov9Xd53ws-dFWpeBxS-7" value="構件" style="shape=partialRectangle;html=1;whiteSpace=wrap;connectable=0;strokeColor=inherit;overflow=hidden;fillColor=none;top=0;left=0;bottom=0;right=0;pointerEvents=1;fontSize=16;" vertex="1" parent="JNov9Xd53ws-dFWpeBxS-6">
          <mxGeometry width="130" height="52" as="geometry">
            <mxRectangle width="130" height="52" as="alternateBounds" />
          </mxGeometry>
        </mxCell>
        <mxCell id="JNov9Xd53ws-dFWpeBxS-8" value="指系統中可替換的物理部分，構建名字(如圖中的Dictionary)標在矩形中，提供了一組接口的實現" style="shape=partialRectangle;html=1;whiteSpace=wrap;connectable=0;strokeColor=inherit;overflow=hidden;fillColor=none;top=0;left=0;bottom=0;right=0;pointerEvents=1;fontSize=16;" vertex="1" parent="JNov9Xd53ws-dFWpeBxS-6">
          <mxGeometry x="130" width="350" height="52" as="geometry">
            <mxRectangle width="350" height="52" as="alternateBounds" />
          </mxGeometry>
        </mxCell>
        <mxCell id="JNov9Xd53ws-dFWpeBxS-9" value="" style="shape=partialRectangle;html=1;whiteSpace=wrap;connectable=0;strokeColor=inherit;overflow=hidden;fillColor=none;top=0;left=0;bottom=0;right=0;pointerEvents=1;fontSize=16;" vertex="1" parent="JNov9Xd53ws-dFWpeBxS-6">
          <mxGeometry x="480" width="160" height="52" as="geometry">
            <mxRectangle width="160" height="52" as="alternateBounds" />
          </mxGeometry>
        </mxCell>
        <mxCell id="JNov9Xd53ws-dFWpeBxS-10" value="" style="shape=tableRow;horizontal=0;startSize=0;swimlaneHead=0;swimlaneBody=0;strokeColor=inherit;top=0;left=0;bottom=0;right=0;collapsible=0;dropTarget=0;fillColor=none;points=[[0,0.5],[1,0.5]];portConstraint=eastwest;fontSize=16;" vertex="1" parent="JNov9Xd53ws-dFWpeBxS-1">
          <mxGeometry y="105" width="640" height="53" as="geometry" />
        </mxCell>
        <mxCell id="JNov9Xd53ws-dFWpeBxS-11" value="接口" style="shape=partialRectangle;html=1;whiteSpace=wrap;connectable=0;strokeColor=inherit;overflow=hidden;fillColor=none;top=0;left=0;bottom=0;right=0;pointerEvents=1;fontSize=16;" vertex="1" parent="JNov9Xd53ws-dFWpeBxS-10">
          <mxGeometry width="130" height="53" as="geometry">
            <mxRectangle width="130" height="53" as="alternateBounds" />
          </mxGeometry>
        </mxCell>
        <mxCell id="JNov9Xd53ws-dFWpeBxS-12" value="外部可訪問到的服務(如圖中的Spell-check)。" style="shape=partialRectangle;html=1;whiteSpace=wrap;connectable=0;strokeColor=inherit;overflow=hidden;fillColor=none;top=0;left=0;bottom=0;right=0;pointerEvents=1;fontSize=16;" vertex="1" parent="JNov9Xd53ws-dFWpeBxS-10">
          <mxGeometry x="130" width="350" height="53" as="geometry">
            <mxRectangle width="350" height="53" as="alternateBounds" />
          </mxGeometry>
        </mxCell>
        <mxCell id="JNov9Xd53ws-dFWpeBxS-13" value="&lt;b&gt;Spell-check&lt;/b&gt;" style="shape=partialRectangle;html=1;whiteSpace=wrap;connectable=0;strokeColor=inherit;overflow=hidden;fillColor=none;top=0;left=0;bottom=0;right=0;pointerEvents=1;fontSize=16;" vertex="1" parent="JNov9Xd53ws-dFWpeBxS-10">
          <mxGeometry x="480" width="160" height="53" as="geometry">
            <mxRectangle width="160" height="53" as="alternateBounds" />
          </mxGeometry>
        </mxCell>
        <mxCell id="JNov9Xd53ws-dFWpeBxS-14" style="shape=tableRow;horizontal=0;startSize=0;swimlaneHead=0;swimlaneBody=0;strokeColor=inherit;top=0;left=0;bottom=0;right=0;collapsible=0;dropTarget=0;fillColor=none;points=[[0,0.5],[1,0.5]];portConstraint=eastwest;fontSize=16;" vertex="1" parent="JNov9Xd53ws-dFWpeBxS-1">
          <mxGeometry y="158" width="640" height="52" as="geometry" />
        </mxCell>
        <mxCell id="JNov9Xd53ws-dFWpeBxS-15" value="構件實例" style="shape=partialRectangle;html=1;whiteSpace=wrap;connectable=0;strokeColor=inherit;overflow=hidden;fillColor=none;top=0;left=0;bottom=0;right=0;pointerEvents=1;fontSize=16;" vertex="1" parent="JNov9Xd53ws-dFWpeBxS-14">
          <mxGeometry width="130" height="52" as="geometry">
            <mxRectangle width="130" height="52" as="alternateBounds" />
          </mxGeometry>
        </mxCell>
        <mxCell id="JNov9Xd53ws-dFWpeBxS-16" value="節點實例上的構件的一個實例，冒號後是該構件實例的名字(如圖中的RoutingList)。" style="shape=partialRectangle;html=1;whiteSpace=wrap;connectable=0;strokeColor=inherit;overflow=hidden;fillColor=none;top=0;left=0;bottom=0;right=0;pointerEvents=1;fontSize=16;" vertex="1" parent="JNov9Xd53ws-dFWpeBxS-14">
          <mxGeometry x="130" width="350" height="52" as="geometry">
            <mxRectangle width="350" height="52" as="alternateBounds" />
          </mxGeometry>
        </mxCell>
        <mxCell id="JNov9Xd53ws-dFWpeBxS-17" style="shape=partialRectangle;html=1;whiteSpace=wrap;connectable=0;strokeColor=inherit;overflow=hidden;fillColor=none;top=0;left=0;bottom=0;right=0;pointerEvents=1;fontSize=16;" vertex="1" parent="JNov9Xd53ws-dFWpeBxS-14">
          <mxGeometry x="480" width="160" height="52" as="geometry">
            <mxRectangle width="160" height="52" as="alternateBounds" />
          </mxGeometry>
        </mxCell>
        <mxCell id="JNov9Xd53ws-dFWpeBxS-18" value="&lt;font style=&quot;font-size: 14px;&quot;&gt;Dictionary&lt;/font&gt;" style="shape=module;align=center;spacingLeft=20;align=center;verticalAlign=top;whiteSpace=wrap;html=1;" vertex="1" parent="1">
          <mxGeometry x="780" y="273" width="100" height="50" as="geometry" />
        </mxCell>
        <mxCell id="JNov9Xd53ws-dFWpeBxS-24" value="" style="endArrow=none;html=1;rounded=0;" edge="1" parent="1" source="JNov9Xd53ws-dFWpeBxS-23">
          <mxGeometry relative="1" as="geometry">
            <mxPoint x="760" y="354.5" as="sourcePoint" />
            <mxPoint x="780" y="354.5" as="targetPoint" />
          </mxGeometry>
        </mxCell>
        <mxCell id="JNov9Xd53ws-dFWpeBxS-29" value="" style="endArrow=none;html=1;rounded=0;" edge="1" parent="1" target="JNov9Xd53ws-dFWpeBxS-23">
          <mxGeometry relative="1" as="geometry">
            <mxPoint x="760" y="352" as="sourcePoint" />
            <mxPoint x="780" y="354.5" as="targetPoint" />
            <Array as="points" />
          </mxGeometry>
        </mxCell>
        <mxCell id="JNov9Xd53ws-dFWpeBxS-23" value="" style="ellipse;whiteSpace=wrap;html=1;aspect=fixed;" vertex="1" parent="1">
          <mxGeometry x="770" y="341.5" width="20" height="20" as="geometry" />
        </mxCell>
        <mxCell id="JNov9Xd53ws-dFWpeBxS-30" value="&lt;u&gt;:RoutingList&lt;/u&gt;" style="html=1;whiteSpace=wrap;" vertex="1" parent="1">
          <mxGeometry x="790" y="380" width="110" height="50" as="geometry" />
        </mxCell>
      </root>
    </mxGraphModel>
  </diagram>
</mxfile>
